<svg xmlns="http://www.w3.org/2000/svg" viewBox="0 0 196.13 194.76"><defs><style>.cls-1{fill:#cc0018;}.cls-2{fill:#fff;}</style></defs><g id="Layer_2" data-name="Layer 2"><g id="Layer_1-2" data-name="Layer 1"><path class="cls-1" d="M187.7,93.85a93.81,93.81,0,0,1-166,59.9A95.88,95.88,0,0,1,135.29,9.66,93.94,93.94,0,0,1,187.7,93.85Z"/><path class="cls-1" d="M196.13,98.91A95.88,95.88,0,0,1,57.42,184.66,97.81,97.81,0,0,0,173.5,37.08,95.41,95.41,0,0,1,196.13,98.91Z"/><path class="cls-1" d="M187.7,93.85A93.89,93.89,0,1,1,135.29,9.66,94,94,0,0,1,187.7,93.85Z"/><path class="cls-2" d="M146.58,57.54,98.93,30a10.14,10.14,0,0,0-10.16,0L41.12,57.54A10.16,10.16,0,0,0,36,66.34v55a10.16,10.16,0,0,0,5.08,8.8l47.65,27.51a10.14,10.14,0,0,0,10.16,0l47.65-27.51a10.14,10.14,0,0,0,5.08-8.8v-55A10.14,10.14,0,0,0,146.58,57.54Z"/><polygon class="cls-1" points="119.02 103.78 119.02 113.73 138.13 103.31 138.13 118.37 119.02 129.4 119.03 141.24 93.85 155.74 93.85 93.85 147.6 62.53 147.6 86.95 119.02 103.78"/><path class="cls-1" d="M91.8,94.34v6.14C81.51,93.59,42.18,67.29,39.74,65.79,42.06,67.05,84,89.89,91.8,94.34Z"/><path class="cls-1" d="M91.8,110.13v5.39c-9.5-6.37-43.47-29.12-46.09-30.78C48.15,86.07,82.27,104.74,91.8,110.13Z"/><path class="cls-1" d="M91.8,124.39v4.33c-8.52-5.51-36.49-23.59-38.27-24.66C55.12,104.9,83.24,119.75,91.8,124.39Z"/><path class="cls-1" d="M91.8,138.34v3.5c-7.43-4.79-29.27-18.91-31-20C62.42,122.73,84.35,134.3,91.8,138.34Z"/><path class="cls-1" d="M91.8,150.89v2.89c-6.43-4.34-23.38-15.76-24.5-16.46C68.34,137.89,85.35,147.26,91.8,150.89Z"/></g></g></svg>